<svg xmlns="http://www.w3.org/2000/svg" xmlns:xlink="http://www.w3.org/1999/xlink" id="Layer_1" x="0px" y="0px" width="119.4px" height="115.2px" viewBox="0 0 119.4 115.2" style="enable-background:new 0 0 119.4 115.2;" xml:space="preserve">
<style type="text/css">
	.st0{fill:#FFCB27;}
	.st1{opacity:0.5;fill:#FE5502;}
	.st2{fill:#FE5502;}
	.st3{fill:#FFFFFF;}
	.st4{fill:#FE8400;}
</style>
<path class="st0" d="M99.5,77.5L55.6,104c-5.6,3.4-13.1,1.6-16.5-4.1L12.8,56.4c-3.4-5.6-1.6-13.1,4.1-16.5l43.9-26.6  c5.6-3.4,13.1-1.6,16.5,4.1L103.6,61C107,66.7,105.2,74.1,99.5,77.5z"></path>
<path class="st1" d="M92.5,88.5l-49.7,12.9c-6.4,1.7-13-2.2-14.6-8.6L15.3,43.6c-1.7-6.4,2.2-13,8.6-14.6L73.6,16  c6.4-1.7,13,2.2,14.6,8.6l12.8,49.3C102.7,80.2,98.9,86.8,92.5,88.5z"></path>
<path class="st2" d="M75.9,20.3H40.5c-11,0-20,9-20,20v36.1c0,11,9,20,20,20h17.7c7.4,0,4.7,7.6,3.3,10.9c-0.3,0.7,0.2,1.4,0.9,1.4  c11.6-0.5,33.5-6.5,33.5-25.4v-6.9V47.2v-6.9C95.9,29.3,86.9,20.3,75.9,20.3z"></path>
<path class="st3" d="M77.7,89.9h-39c-6.6,0-12-5.4-12-12V39.2c0-6.6,5.4-12,12-12h39c6.6,0,12,5.4,12,12v38.7  C89.7,84.5,84.3,89.9,77.7,89.9z"></path>
<circle class="st2" cx="20.9" cy="17.7" r="4"></circle>
<circle class="st4" cx="33" cy="13.6" r="2.1"></circle>
<circle class="st0" cx="10.4" cy="31.8" r="3.4"></circle>
<circle class="st4" cx="88.9" cy="12.6" r="3.2"></circle>
<circle class="st2" cx="100.8" cy="19" r="2.8"></circle>
<circle class="st0" cx="18.1" cy="92.9" r="3"></circle>
<circle class="st0" cx="103.6" cy="94.2" r="4"></circle>
<circle class="st2" cx="107.6" cy="76.9" r="3"></circle>
<circle class="st4" cx="94.4" cy="102.9" r="2.1"></circle>
<circle class="st4" cx="105.5" cy="105.1" r="2.1"></circle>
<circle class="st2" cx="111.5" cy="97.4" r="1"></circle>
<circle class="st4" cx="23.4" cy="7.7" r="1.7"></circle>
<circle class="st0" cx="13" cy="12.6" r="1.1"></circle>
<circle class="st4" cx="18.1" cy="104.5" r="1.6"></circle>
<circle class="st0" cx="99.5" cy="7.7" r="1.7"></circle>
<g>
	<path class="st2" d="M47.1,39.8V43h-6.6v2.8c0.5-0.1,1.1-0.2,1.7-0.2c1.6,0,3,0.5,4.2,1.5c1.2,1,1.8,2.3,1.8,3.9s-0.6,3-1.8,4.1   s-2.7,1.6-4.5,1.6c-2.3,0-4.2-0.8-5.7-2.5l2-2.7c0.1,0.1,0.3,0.3,0.6,0.5c0.2,0.2,0.7,0.5,1.3,0.8c0.6,0.3,1.3,0.5,1.9,0.5   c0.6,0,1.2-0.2,1.7-0.6c0.5-0.4,0.7-1,0.7-1.7s-0.3-1.3-0.8-1.7c-0.5-0.4-1.2-0.6-2.1-0.6s-1.8,0.3-3,0.9L37,48v-8.2H47.1z"></path>
	<path class="st2" d="M57.5,56.8c-2.3,0-4.1-0.8-5.2-2.4c-1.2-1.6-1.7-3.7-1.7-6.3c0-2.6,0.6-4.7,1.7-6.3c1.2-1.6,2.9-2.4,5.2-2.4   s4.1,0.8,5.2,2.4s1.7,3.7,1.7,6.3c0,2.6-0.6,4.7-1.7,6.3S59.8,56.8,57.5,56.8z M55.1,44.1c-0.5,1-0.8,2.4-0.8,4.1   c0,1.7,0.3,3,0.8,4.1c0.5,1,1.4,1.5,2.5,1.5s1.9-0.5,2.5-1.5c0.5-1,0.8-2.4,0.8-4.1c0-1.7-0.3-3-0.8-4.1c-0.5-1-1.4-1.5-2.5-1.5   S55.6,43,55.1,44.1z"></path>
	<path class="st2" d="M74.4,43.6c0,0.9-0.3,1.7-1,2.4c-0.7,0.6-1.5,1-2.5,1c-1,0-1.9-0.3-2.5-1c-0.7-0.7-1-1.5-1-2.4   c0-0.9,0.3-1.7,1-2.4s1.5-1,2.5-1c1,0,1.9,0.3,2.5,1S74.4,42.7,74.4,43.6z M83.6,39.8l-12,16.8h-4.1l12-16.8H83.6z M70.2,44.5   c0.2,0.2,0.4,0.3,0.7,0.3s0.5-0.1,0.7-0.3c0.2-0.2,0.3-0.5,0.3-0.9c0-0.4-0.1-0.6-0.3-0.9c-0.2-0.2-0.4-0.3-0.7-0.3   c-0.3,0-0.5,0.1-0.7,0.3c-0.2,0.2-0.3,0.5-0.3,0.9C69.9,44,70,44.2,70.2,44.5z M83.9,53.4c0,0.9-0.3,1.7-1,2.4   c-0.7,0.6-1.5,1-2.5,1c-1,0-1.9-0.3-2.5-1s-1-1.5-1-2.4c0-0.9,0.3-1.7,1-2.4c0.7-0.7,1.5-1,2.5-1c1,0,1.9,0.3,2.5,1   C83.5,51.7,83.9,52.5,83.9,53.4z M79.6,54.3c0.2,0.2,0.4,0.3,0.7,0.3s0.5-0.1,0.7-0.3c0.2-0.2,0.3-0.5,0.3-0.9   c0-0.4-0.1-0.6-0.3-0.9c-0.2-0.2-0.4-0.3-0.7-0.3c-0.3,0-0.5,0.1-0.7,0.3c-0.2,0.2-0.3,0.5-0.3,0.9C79.3,53.8,79.4,54.1,79.6,54.3z   "></path>
</g>
<g>
	<path class="st0" d="M49.8,74.6c-1.7,1.7-3.8,2.5-6.3,2.5c-2.5,0-4.6-0.8-6.3-2.5c-1.7-1.7-2.5-3.7-2.5-6.2s0.8-4.5,2.5-6.2   c1.7-1.7,3.8-2.5,6.3-2.5c2.5,0,4.6,0.8,6.3,2.5s2.5,3.7,2.5,6.2S51.5,73,49.8,74.6z M48.5,68.5c0-1.5-0.5-2.8-1.4-3.8   c-1-1.1-2.1-1.6-3.5-1.6S41,63.6,40,64.6c-1,1.1-1.4,2.3-1.4,3.8c0,1.5,0.5,2.8,1.4,3.8c1,1,2.1,1.6,3.5,1.6s2.6-0.5,3.5-1.6   S48.5,69.9,48.5,68.5z"></path>
	<path class="st0" d="M67,60.2v3.3h-7.8v3.6h7.4v3.3h-7.4v6.6h-3.7V60.2H67z"></path>
	<path class="st0" d="M81.7,60.2v3.3h-7.8v3.6h7.4v3.3h-7.4v6.6h-3.7V60.2H81.7z"></path>
</g>
</svg>